<svg version="1.1" id="Layer_1" xmlns="http://www.w3.org/2000/svg" xmlns:xlink="http://www.w3.org/1999/xlink" x="0px" y="0px"
	 width="100%" viewBox="0 0 496 496" enable-background="new 0 0 496 496" xml:space="preserve">
<path fill="#000000" opacity="1.000000" stroke="none" 
	d="
M323.986420,340.981049 
	C325.611847,338.983521 327.700867,340.672180 330.090881,340.307251 
	C327.191467,336.358978 325.129608,332.334473 329.037781,328.259796 
	C331.104492,326.105042 332.360718,328.882080 334.144012,329.656494 
	C330.247742,325.298584 331.251007,321.655579 333.408783,316.578766 
	C335.966370,310.561310 336.014496,303.389862 336.672241,296.671753 
	C337.799744,285.154999 340.458801,274.046722 344.579498,263.264313 
	C345.036621,262.068176 345.236664,260.672516 346.530853,259.992065 
	C348.250946,260.239777 347.866821,262.205109 349.128937,262.983856 
	C349.473938,262.748291 350.066589,262.570831 350.209930,262.213257 
	C359.047089,240.168243 369.493286,218.454636 364.701569,193.534821 
	C364.418701,192.063782 364.107483,190.598083 363.797791,189.132355 
	C363.258728,186.581100 361.732147,184.764648 359.143402,184.615463 
	C356.684998,184.473785 356.798828,187.014771 356.057404,188.561295 
	C351.656128,197.741928 347.080780,206.829407 340.212708,214.478836 
	C338.446106,216.446396 337.878876,218.370499 339.440582,220.694214 
	C331.551483,221.836014 322.280060,210.970383 323.103302,202.534882 
	C329.881653,202.871429 335.476318,200.341782 340.154785,195.625488 
	C345.744263,189.990799 349.258728,182.953552 353.289276,175.831177 
	C351.632324,173.319473 349.510681,171.161636 346.631714,169.828369 
	C344.269318,170.940842 342.838226,172.868881 341.445190,174.668182 
	C335.691895,182.099442 328.433563,184.372192 319.313782,182.245224 
	C311.695343,180.468414 311.438110,180.978149 312.954590,188.469894 
	C313.294922,190.151215 314.247467,191.949203 312.933655,193.678284 
	C297.636322,186.115234 284.064178,143.706223 292.615295,129.748535 
	C295.502930,131.386963 294.583954,135.745087 298.244049,137.396225 
	C301.009735,128.104553 306.366272,121.662651 316.379120,120.597298 
	C317.262085,122.009605 316.623383,122.656006 316.199219,123.344200 
	C315.864105,123.887856 315.516205,124.423630 315.107300,125.068054 
	C315.683746,125.410797 316.055328,125.766792 316.486481,125.867271 
	C321.033386,126.926941 320.979462,129.396393 318.852905,132.823242 
	C316.946991,135.894638 315.059906,139.037247 314.635590,142.648987 
	C315.914337,143.765381 316.743073,142.819382 317.534515,142.397873 
	C325.419281,138.198700 331.984406,138.874268 338.609314,144.752853 
	C342.507507,148.211899 345.536774,152.367264 348.151154,156.875824 
	C352.279846,163.995865 357.493713,169.399780 366.764252,168.606201 
	C368.377808,168.468094 370.110291,169.718979 372.229401,170.488708 
	C376.258728,162.540787 375.325623,154.204712 374.270874,146.074936 
	C372.781525,134.595001 368.176331,123.961296 364.172241,113.188927 
	C363.519196,111.432068 362.209473,109.716652 363.056183,107.164154 
	C367.218079,109.110016 368.321777,113.784508 371.678558,115.878723 
	C373.062225,107.449219 370.936584,100.009567 366.619629,92.969307 
	C365.306427,90.827713 363.693726,88.494987 364.177124,85.617393 
	C369.173737,85.650139 404.820770,102.919579 407.344055,106.650734 
	C404.090179,108.438820 401.424713,104.916573 397.857941,105.897095 
	C403.886017,113.630547 412.367432,119.790413 413.198761,131.511139 
	C405.302216,127.181976 400.444305,119.914772 391.427002,117.394554 
	C393.556183,123.587448 396.959869,128.211853 400.397949,132.712479 
	C405.870361,139.876083 411.541748,146.881973 414.450867,155.587784 
	C415.412323,158.465042 416.913361,161.377487 414.960419,165.435516 
	C408.174469,158.254883 404.012665,149.261703 394.045532,144.509766 
	C398.405273,156.033981 406.512146,165.280853 406.847260,177.666168 
	C402.948547,177.430267 401.982025,173.757263 398.658478,173.212570 
	C397.883148,177.694473 400.247803,181.849182 400.015167,186.190948 
	C399.820343,189.827896 399.484924,190.036331 396.043121,188.355057 
	C394.379822,192.454559 396.575928,197.198700 394.049103,201.407547 
	C390.665039,200.142471 390.661774,196.410141 387.932098,194.138840 
	C384.949402,203.757309 382.192566,213.128662 380.826752,222.773270 
	C378.867889,236.605652 376.836121,250.509583 379.314178,264.516968 
	C382.664246,283.453125 396.827637,298.423218 414.076660,301.344055 
	C415.659515,301.612061 417.283905,301.634766 420.155731,301.879211 
	C396.819275,293.327606 385.282410,272.741760 389.289368,248.446167 
	C391.791809,233.272995 396.119080,218.601639 401.739563,204.303741 
	C402.211914,203.102173 402.444702,201.711212 404.141052,200.667892 
	C406.844635,204.058197 405.414673,208.242249 406.430389,212.293915 
	C412.175995,203.964767 413.896515,194.211517 417.779968,184.725800 
	C421.828156,188.706726 420.441833,193.366486 421.694153,197.852234 
	C427.789917,190.445328 428.920929,181.338150 432.575012,172.318909 
	C439.141113,178.975769 440.137695,187.168396 442.659943,195.226562 
	C450.002045,187.922363 447.554413,179.358765 446.807831,171.314423 
	C452.458191,169.653168 457.450958,168.982681 460.030548,176.003403 
	C460.726685,172.207199 459.546021,169.236282 458.077515,166.405930 
	C456.649231,163.653137 454.954742,161.038483 453.138702,157.958847 
	C457.798126,156.726990 460.852539,160.961777 465.654846,159.948578 
	C456.134338,149.522324 446.862213,139.463974 437.699615,129.306808 
	C428.552948,119.167290 421.351471,107.710861 414.411102,95.834167 
	C418.668030,93.688828 421.887482,97.104668 426.415405,95.619324 
	C419.391022,87.365173 412.817657,79.728958 402.066895,77.277321 
	C396.727753,76.059769 391.181732,75.471046 386.438843,72.361206 
	C384.941528,71.379448 382.732758,70.727425 382.844177,68.603088 
	C382.963135,66.334717 385.420380,66.391945 386.978790,65.597176 
	C387.970612,65.091354 389.289215,65.025246 389.791840,63.382851 
	C387.487854,61.560425 384.520355,61.858860 381.904083,61.478813 
	C367.417450,59.374481 353.681061,55.123566 340.760742,48.181873 
	C322.017792,38.111847 301.744080,33.864300 280.685699,33.398903 
	C263.529297,33.019749 246.310379,32.571232 229.202881,33.577080 
	C205.301544,34.982376 181.830338,38.984306 161.122696,52.405167 
	C147.318802,61.351624 131.905167,64.895424 115.764404,66.343971 
	C102.317749,67.550751 96.271324,70.096313 89.045532,76.821175 
	C90.787262,77.933456 93.534149,76.981125 94.702347,79.960014 
	C87.123947,85.857414 81.269775,93.548080 75.547577,101.461105 
	C77.331566,102.527382 78.701622,100.416039 80.076820,101.570946 
	C80.863182,102.691635 80.164230,103.531708 79.615433,104.335533 
	C69.752663,118.781548 57.993877,131.381897 43.431557,141.205185 
	C40.254070,143.348633 36.893078,145.228653 33.000957,145.821320 
	C31.215736,146.093140 29.364811,146.620300 27.216610,143.889755 
	C42.500576,136.577698 55.239902,126.321419 65.314041,112.898911 
	C64.144035,110.828506 61.884178,113.067703 60.336395,110.536087 
	C67.967743,102.415375 75.241417,93.540146 82.013641,84.434311 
	C80.804024,82.371353 78.441528,83.637032 77.330177,81.642838 
	C76.860718,80.395706 78.095192,79.553001 78.931152,78.593414 
	C87.414726,68.855293 98.072083,63.110798 110.931679,61.950607 
	C130.335556,60.200005 148.248688,54.599316 164.951736,44.228676 
	C180.575516,34.528126 198.589676,31.383074 216.552902,30.067944 
	C245.450089,27.952318 274.455322,27.210403 303.325867,30.771986 
	C316.954987,32.453335 330.013458,36.528015 342.253601,42.895340 
	C357.163086,50.651234 372.691925,56.368988 389.595978,57.730301 
	C389.762024,57.743671 389.934235,57.741409 390.092163,57.786404 
	C393.550323,58.771629 398.107880,58.582069 399.657959,62.181602 
	C400.991943,65.279228 395.791351,65.716530 394.818390,69.302086 
	C403.225891,73.350082 413.499298,73.681541 420.453491,81.302589 
	C426.822449,88.282341 432.945923,95.395721 438.709290,102.726418 
	C436.870117,105.388176 433.898499,104.181953 432.028717,106.019081 
	C432.441711,110.390862 435.082550,113.910721 437.250641,117.584610 
	C443.053131,127.417274 450.751678,135.738098 458.588135,143.939697 
	C466.188477,151.894165 473.308746,160.237137 480.068970,168.940506 
	C487.041168,177.916794 487.622467,187.057373 482.773590,196.955200 
	C477.089691,208.557617 469.911865,219.172806 461.086639,228.578842 
	C454.134308,235.988754 447.107941,243.393082 439.514252,250.122559 
	C427.941284,260.378448 426.681030,272.352112 432.058441,285.897827 
	C433.717285,290.076355 435.612274,294.161804 437.243835,298.350342 
	C439.415283,303.924866 438.317932,306.551056 432.922821,309.243713 
	C429.295258,311.054169 425.452026,312.039948 421.403351,312.260193 
	C419.087494,312.386139 416.726898,312.295624 414.051117,313.711731 
	C415.796143,329.660645 419.199036,345.378662 425.877869,360.350861 
	C418.157013,362.246582 418.045685,362.247986 418.141937,369.867889 
	C418.307556,382.981171 415.303162,394.999603 406.236237,404.914734 
	C402.628387,408.860107 398.443970,412.030884 392.361298,413.007019 
	C391.050720,407.130951 393.709381,401.917694 393.037567,396.411530 
	C387.379395,409.138702 382.608246,422.490540 367.337921,428.498077 
	C366.573181,421.853180 370.037079,416.419342 369.845428,410.022858 
	C365.655914,414.316772 363.021088,419.871185 357.551514,422.093872 
	C354.907318,420.236511 356.488281,417.697876 355.414398,415.394440 
	C350.657959,420.704041 348.608948,427.733673 343.355591,432.375519 
	C338.130371,436.992493 332.095581,439.662262 323.844543,440.466705 
	C326.845123,433.083435 330.883087,427.358734 332.600433,420.668304 
	C334.299103,414.050446 335.657135,407.476746 334.242310,400.315765 
	C331.526672,401.205780 331.356262,403.360260 330.730499,405.103577 
	C326.145966,417.875732 320.517365,430.067657 311.762817,440.627289 
	C308.740387,444.272827 305.072113,447.110779 301.266968,449.799774 
	C299.802216,450.834839 298.127777,451.761963 295.225800,450.914459 
	C298.316956,440.823273 305.738739,431.435577 301.863434,419.708862 
	C299.726044,421.054718 299.334351,423.206055 298.571655,425.089081 
	C293.912231,436.593353 288.245483,447.484192 279.480347,456.483337 
	C273.253601,462.876404 265.026855,463.649902 256.576843,464.705475 
	C263.880463,453.166473 275.386871,444.007782 273.630463,428.411896 
	C268.930756,435.951599 265.255859,444.210175 257.928650,450.377411 
	C256.002014,447.108734 257.343475,444.289886 257.129761,440.651428 
	C253.737015,446.275665 250.586487,451.065582 246.913223,455.480713 
	C242.075974,461.294800 236.383057,466.106995 230.180862,470.398560 
	C226.525513,472.927826 223.605408,472.497253 220.476425,469.372101 
	C212.800903,461.706268 205.519196,453.712372 198.879730,445.130981 
	C197.490952,443.336029 196.380005,441.246765 194.060669,439.967072 
	C193.937546,445.773834 197.529617,450.507477 197.888000,456.954193 
	C192.784439,455.812195 189.130585,453.284210 186.062866,449.833435 
	C180.028854,443.046112 176.149246,434.861420 171.544037,427.146454 
	C170.646332,425.642578 170.317230,423.706573 168.297531,422.541138 
	C168.164139,431.309265 173.380005,438.409241 175.204422,447.507538 
	C155.118530,441.557281 150.100159,423.145386 139.695908,408.205566 
	C138.871307,414.907379 142.396088,419.989838 140.899200,425.672241 
	C125.380890,422.306000 122.498970,407.743652 114.738663,396.154114 
	C114.154144,400.412079 113.701859,403.482819 113.317085,406.562012 
	C112.734207,411.226379 111.114761,412.040497 107.195869,409.232391 
	C100.933060,404.744720 97.731781,398.126495 95.569000,391.034332 
	C94.435600,387.317657 92.781448,384.094299 90.616692,380.850403 
	C83.731064,370.532288 81.679092,359.141296 84.472496,346.968018 
	C84.843559,345.351013 85.211472,343.732422 85.525558,342.103943 
	C85.581032,341.816315 85.362572,341.475830 85.233490,341.032135 
	C82.879738,339.161224 79.666313,342.331146 77.242874,339.887665 
	C76.833733,337.240265 78.809753,335.622406 80.047112,333.783691 
	C84.264915,327.516144 86.171989,320.573975 86.692352,313.121185 
	C86.957115,309.329132 85.330017,307.880890 81.692207,308.411621 
	C78.712029,308.846405 75.762955,309.054108 72.765091,308.339417 
	C66.567848,306.862030 64.938293,304.042297 67.316910,298.231842 
	C68.830605,294.534180 70.599525,290.941162 72.247849,287.298431 
	C79.154045,272.036011 77.572388,263.121185 65.798584,251.276978 
	C58.161739,243.594482 50.582649,235.850693 42.800442,228.317474 
	C31.692917,217.565353 24.116272,204.567474 18.022865,190.544449 
	C14.573635,182.606628 15.465672,175.194260 20.632940,168.409195 
	C25.576567,161.917770 30.734875,155.584320 35.962265,149.317764 
	C37.584663,147.372864 39.452446,145.010864 43.286274,147.338120 
	C39.261494,155.834183 30.667231,161.340103 27.499298,170.781448 
	C31.160030,170.105103 33.619568,167.361572 37.318836,167.084473 
	C39.060268,172.180191 35.698463,177.505676 38.568913,182.402496 
	C41.463497,179.851089 41.577374,175.328964 45.540390,172.814621 
	C48.840488,178.487122 48.871922,185.426315 53.468300,190.915924 
	C55.990372,186.715729 52.992313,181.145737 57.748306,177.418961 
	C61.270794,184.430542 62.700123,192.107452 68.370689,198.523727 
	C69.720406,189.583847 67.618309,180.823959 73.552032,173.479935 
	C76.807930,185.388184 78.466438,197.692886 85.601784,209.258438 
	C86.462639,200.706451 84.672058,193.021378 87.710709,185.413834 
	C92.906128,194.263306 94.788704,204.590164 100.242233,213.567276 
	C101.506317,211.157013 100.216339,208.429703 102.345833,206.775986 
	C103.556213,206.957382 104.075920,207.850815 104.374397,208.793533 
	C108.792320,222.747040 114.264420,236.594543 113.088913,251.561981 
	C112.147789,263.545166 108.242661,274.671722 100.009224,283.865173 
	C98.470177,285.583679 98.434090,285.551361 95.291939,286.570801 
	C95.587479,282.176605 99.276474,279.169739 99.377777,274.580322 
	C97.735397,275.197815 97.129059,278.066925 94.054947,276.806152 
	C96.219849,265.286652 100.412552,253.705383 98.049110,240.782471 
	C85.134270,258.899078 82.729599,280.645569 72.919640,299.439880 
	C76.308525,301.624268 79.266815,300.794006 82.130280,300.333252 
	C106.076385,296.480011 119.424713,274.526703 122.684639,257.789703 
	C125.075661,245.513748 122.452164,233.582031 120.484108,221.621246 
	C119.000404,212.604050 117.041321,203.665085 115.279968,194.620102 
	C113.048416,194.057617 112.570732,196.963608 110.256393,196.873062 
	C108.059814,192.822662 112.374374,188.511520 110.480011,184.309250 
	C107.645248,184.506699 106.960091,188.166107 103.270752,187.794632 
	C102.721901,176.116013 112.855171,168.451935 115.066643,156.854019 
	C107.854210,163.162781 103.171295,170.486313 95.708557,176.680038 
	C92.177834,158.335098 105.563873,147.615723 112.783257,133.168335 
	C103.193428,138.155334 98.528793,146.308228 92.604507,153.495499 
	C90.287064,150.970444 91.680176,148.918045 92.375275,147.101776 
	C96.344193,136.731262 102.096039,127.423294 109.442093,119.090790 
	C111.380257,116.892357 113.644531,114.906754 115.050072,111.465477 
	C106.886971,113.749474 100.512909,118.612686 93.092674,121.210747 
	C102.446815,100.206642 124.484230,95.197174 140.942749,82.750717 
	C138.393188,94.036415 130.729553,103.580772 130.714294,116.130203 
	C133.791458,112.894928 134.762939,108.631203 138.609329,106.323433 
	C140.608200,110.080009 137.959641,113.123573 137.731644,116.654587 
	C139.623779,116.795937 140.431534,114.107430 142.493530,114.774269 
	C143.817413,116.646599 142.244614,118.194038 141.667267,119.757408 
	C137.507690,131.021240 133.176163,142.243439 133.427811,154.531052 
	C133.488876,157.512939 133.889236,160.500290 134.310883,163.459869 
	C135.292084,170.347244 137.683289,171.824966 144.031723,169.160477 
	C146.229843,168.237915 148.229523,167.455948 150.692169,167.646851 
	C154.025894,167.905273 155.626938,165.223190 157.249542,162.937958 
	C160.714203,158.058350 163.495804,152.698929 167.910660,148.497116 
	C174.658234,142.075165 181.777420,137.347397 192.163925,143.054138 
	C191.269806,139.026321 189.229202,136.670135 187.248444,134.317078 
	C183.051331,129.331085 183.043350,129.194000 188.396301,125.232857 
	C190.116364,123.960037 193.275696,123.274155 189.508499,119.936249 
	C195.740555,118.084740 199.817520,120.511002 203.603455,123.978195 
	C207.371170,127.428711 208.234940,132.617615 210.949631,136.859299 
	C213.229965,134.684433 211.898849,131.380707 214.544983,129.015808 
	C219.273026,134.625076 219.270050,141.098785 218.879288,147.642990 
	C217.991684,162.507812 211.267487,175.068329 203.137375,187.037827 
	C201.414520,189.574265 200.072937,192.566238 196.535782,193.991455 
	C194.942810,191.252228 196.635071,189.098557 197.261566,186.884583 
	C198.626831,182.059784 197.477051,180.618103 192.494003,181.499557 
	C188.182755,182.262161 183.869522,182.556625 179.558624,182.066406 
	C173.710297,181.401352 170.295944,178.533554 164.182770,169.830673 
	C160.466446,170.966827 158.158203,172.548080 153.313522,177.424255 
	C157.572876,182.323425 160.199280,188.791122 165.730362,192.560654 
	C170.746765,195.979431 174.036743,203.970245 182.347626,199.730377 
	C184.042740,206.839645 173.842453,220.205353 167.093872,219.678558 
	C167.976059,215.952866 165.620148,213.528961 163.464996,211.006775 
	C158.528641,205.229736 155.440704,198.383759 152.230881,191.603760 
	C150.715927,188.403778 148.899780,185.374069 145.579269,183.735931 
	C141.493301,181.720169 138.423676,183.289856 138.242783,187.567001 
	C137.223938,211.657059 141.727356,234.617310 152.532349,256.253876 
	C152.819061,256.828033 153.307632,257.301422 153.644485,257.745850 
	C155.566681,257.954529 155.224640,255.550293 156.918137,255.411377 
	C159.075989,256.060486 159.422302,258.276306 159.863785,260.061218 
	C162.065643,268.963074 165.593491,277.581055 165.165359,287.080170 
	C165.093521,288.673798 167.729645,290.341125 168.374634,292.623535 
	C170.327026,299.532410 170.790115,306.914978 175.012451,313.138214 
	C176.205933,314.897247 175.350342,317.012268 174.034683,319.215637 
	C178.249847,319.149231 178.876450,322.045563 179.159332,325.100952 
	C179.661270,330.522003 181.589706,335.480652 184.203445,340.148285 
	C186.294006,343.881592 189.427078,346.299072 194.137939,346.437958 
	C193.987808,343.928833 192.211655,342.993347 191.005692,341.727386 
	C185.604202,336.057037 182.358948,329.167480 179.676361,321.958069 
	C179.033783,320.231140 178.614929,318.418640 179.849182,316.333160 
	C179.985886,316.004181 179.950516,316.025848 179.950516,316.025848 
	C182.492554,316.299957 183.032944,318.182495 183.405716,320.253601 
	C184.873032,328.405487 189.963257,334.378876 195.796936,339.630615 
	C201.660904,344.909637 209.231949,343.937531 215.845154,342.340454 
	C225.147400,340.093994 234.049606,336.191132 244.188248,332.621521 
	C235.638351,331.095032 228.816711,336.025238 221.620178,334.982117 
	C220.457870,332.424255 222.474274,331.188324 222.965927,329.071320 
	C221.316071,328.016632 221.412262,325.989288 220.827042,324.225708 
	C218.893600,318.399292 222.080612,312.249237 217.163315,306.255524 
	C207.854004,294.908386 206.191376,280.628326 208.124161,266.411926 
	C209.421753,256.867615 216.927139,251.423019 224.869705,247.104980 
	C230.035339,244.296661 235.683823,242.984360 241.635483,242.647705 
	C248.144119,242.279541 254.621124,242.499908 261.103790,242.814377 
	C286.540527,244.048325 299.152863,260.434814 293.838013,285.213776 
	C292.284882,292.454865 289.352325,299.139130 285.934113,305.652649 
	C285.107819,307.227142 283.717499,308.616089 283.970947,310.601593 
	C292.438629,316.068817 292.467560,316.187439 286.261536,319.809113 
	C290.596924,326.567444 290.568542,326.715546 284.566040,328.665924 
	C286.749481,335.589264 286.498657,335.794189 279.163544,334.472687 
	C272.979706,333.358582 266.757660,332.456360 260.269348,332.459686 
	C263.764374,333.521881 267.254059,334.602020 270.755402,335.642883 
	C280.478149,338.533203 289.876434,342.524658 300.035309,343.935944 
	C307.875427,345.025085 314.943726,343.858124 320.794067,338.061066 
	C321.472473,337.388824 322.437805,337.006134 323.175018,336.548279 
	C325.567505,337.460632 324.489349,339.016174 323.874146,340.917053 
	C320.710907,346.303253 315.701355,349.061157 312.105469,353.166473 
	C319.514404,352.396027 321.833496,346.767822 323.986420,340.981049 
M139.543442,328.976807 
	C136.893448,331.710968 134.902725,335.418396 130.520828,335.557678 
	C128.768127,333.234863 131.426285,331.108673 129.833344,328.532257 
	C122.750496,336.012207 119.793953,346.820679 109.869957,352.666046 
	C108.900902,347.763916 110.676956,344.028015 111.123863,340.186829 
	C111.294136,338.723297 112.270309,336.846130 110.893578,335.958862 
	C107.689224,333.893799 109.257469,331.351624 109.665428,328.864990 
	C110.176682,325.748779 111.766670,322.665131 110.079277,318.877075 
	C100.427429,327.798065 93.651611,337.886322 89.328934,349.764832 
	C92.349442,351.084839 94.297554,347.936188 97.103157,349.831757 
	C95.933807,358.622314 94.298325,367.740448 97.554474,377.157715 
	C100.936714,374.247955 100.733437,369.488678 105.014580,367.477081 
	C107.396469,372.578308 105.196609,378.558075 108.491722,383.312988 
	C110.399811,380.427704 109.112579,376.398254 112.756676,374.051300 
	C116.203995,380.506866 116.515213,388.541168 122.855568,393.458282 
	C124.749916,390.355103 122.763191,386.771179 126.102959,384.309875 
	C131.739670,391.263611 137.664932,397.707642 144.947586,402.701996 
	C143.256668,395.865753 139.905609,389.804565 138.683121,383.056366 
	C137.460464,376.307098 136.700012,369.554321 141.109207,362.217377 
	C146.316513,371.373138 147.811325,380.972412 152.811035,388.973877 
	C154.448334,388.003082 153.893234,385.780518 156.341187,385.375275 
	C161.181274,396.492401 168.955139,405.602631 178.440903,414.670959 
	C177.904739,406.511078 176.351212,399.548126 179.700623,391.242523 
	C187.084000,403.931122 191.387177,417.155914 203.012421,425.372131 
	C204.882050,421.513245 201.907837,417.993103 204.279678,413.712097 
	C209.366180,420.814575 211.978683,428.949585 219.150513,433.585052 
	C213.149445,422.252289 212.278732,410.212860 214.140335,397.985809 
	C211.749893,397.643494 210.294357,399.560913 208.573364,398.093506 
	C207.585495,396.274719 208.634354,394.568939 209.121750,392.883423 
	C210.658875,387.567627 213.140411,382.661194 216.047379,377.980194 
	C217.174591,376.165100 217.491943,374.689209 215.486710,373.304749 
	C210.155899,369.624329 206.711533,364.237213 202.958527,359.163574 
	C200.875778,356.347961 198.455322,354.535095 194.918457,353.816803 
	C187.793411,352.369812 182.295929,348.172638 179.364502,341.660889 
	C177.462021,337.434753 174.545929,335.625824 170.542450,334.572266 
	C165.184494,333.162292 160.948090,327.973053 161.039093,322.168091 
	C161.115738,317.280457 158.417404,312.846527 160.230820,307.357910 
	C149.829102,312.022522 145.551392,320.821381 139.543442,328.976807 
M282.159302,275.522095 
	C282.750397,277.000122 283.341522,278.478149 283.970642,280.051208 
	C289.795807,274.321411 289.466278,266.431885 283.373016,261.952576 
	C280.395782,259.763916 277.062836,258.256592 273.499542,257.298096 
	C261.236115,253.999207 248.740601,254.586090 236.322357,255.633392 
	C228.721527,256.274445 222.620850,260.547485 217.723068,266.299744 
	C213.866684,270.828949 214.454849,276.291748 219.261261,280.901428 
	C221.362854,271.682922 228.093735,268.221680 236.443771,267.827393 
	C246.233337,267.365143 256.067474,267.512970 265.870728,267.796204 
	C271.997253,267.973236 277.668732,269.846008 282.159302,275.522095 
M295.046265,355.779572 
	C291.933441,354.448578 289.517456,355.092926 287.084381,357.641571 
	C283.199890,361.710510 277.995605,363.090240 272.513275,363.142151 
	C263.855042,363.224121 255.175079,363.466003 246.541702,362.978302 
	C238.806351,362.541351 230.434555,362.997070 224.189926,357.438690 
	C219.136871,352.940948 214.341721,354.496216 208.748886,355.778656 
	C211.095413,360.755402 215.325653,362.246979 219.607056,363.556763 
	C222.461670,364.430084 225.797302,364.381592 228.226639,365.872009 
	C235.415482,370.282257 243.144455,371.133972 251.268005,370.844818 
	C256.757416,370.649475 262.259857,370.670959 267.753052,370.775787 
	C272.801453,370.872101 277.390137,369.472961 281.241241,366.365265 
	C284.545288,363.699036 288.030914,362.661530 292.238800,362.607605 
	C298.409851,362.528534 302.638947,359.181458 303.937347,354.082275 
	C301.067932,354.116974 298.751160,356.520538 295.046265,355.779572 
M367.166077,370.345795 
	C366.696899,371.646362 364.968811,373.512543 366.602234,374.224457 
	C370.294128,375.833435 368.175934,378.041138 367.676971,379.994324 
	C365.840057,387.184814 361.734161,393.376526 357.634216,400.955566 
	C372.829498,389.772278 380.567749,375.285950 386.254517,359.123779 
	C384.145721,358.802521 382.861450,360.330933 380.877777,359.253082 
	C381.093536,353.509308 385.627350,348.470062 385.091736,341.285583 
	C378.221588,351.016876 372.936707,360.432556 367.166077,370.345795 
M237.324585,287.763977 
	C234.322968,294.227386 227.826401,291.367218 222.559433,292.795898 
	C225.023346,297.053192 228.433731,297.609131 232.117630,296.496796 
	C236.626434,295.135376 239.588181,289.337677 238.999924,282.995270 
	C238.405991,284.767639 238.012772,285.941101 237.324585,287.763977 
M277.008484,292.197357 
	C267.837952,292.291077 265.434235,290.670746 263.319763,282.969910 
	C261.621857,288.162140 262.923157,291.612793 267.831268,294.499603 
	C271.285553,296.531311 274.750458,296.806854 277.916046,293.883972 
	C278.467407,293.374878 279.911072,292.310333 277.008484,292.197357 
M319.071533,153.287613 
	C316.837616,153.788483 315.251221,155.219849 315.759674,157.446548 
	C316.227173,159.493774 318.463196,158.812515 320.052399,158.900803 
	C320.713379,158.937500 321.382568,158.931686 322.041809,158.874054 
	C323.824371,158.718201 326.211487,158.979828 326.409546,156.617691 
	C326.616608,154.147888 324.439575,153.461472 322.327057,153.244629 
	C321.506073,153.160370 320.671448,153.208542 319.071533,153.287613 
M183.683502,154.207642 
	C182.267670,154.756256 180.910797,155.363144 180.724319,157.129761 
	C184.480804,160.540100 187.904297,160.235870 191.415695,156.073471 
	C189.484985,153.882919 187.144745,153.212402 183.683502,154.207642 
M178.034744,146.358566 
	C175.620163,147.650909 173.066772,148.781967 171.672745,151.922791 
	C176.186935,149.816238 180.340591,147.877945 184.760895,145.815216 
	C182.469009,145.016266 180.588135,145.389664 178.034744,146.358566 
M331.462341,145.692291 
	C329.341248,145.094757 327.219391,144.612717 324.295593,145.451782 
	C328.924896,147.237885 332.795929,148.731400 337.033905,150.366516 
	C335.971375,147.789780 333.816223,147.176880 331.462341,145.692291 
z"/>
<path fill="#000000" opacity="1.000000" stroke="none" 
	d="
M180.002136,315.991699 
	C176.834824,315.811554 176.721771,313.654480 176.387512,311.116730 
	C175.591003,305.069702 177.367294,299.284027 177.793060,293.373352 
	C178.034088,290.027313 176.969788,286.893829 176.937027,283.796936 
	C176.812088,271.983704 177.758820,260.190918 180.735733,248.670456 
	C181.021317,247.565262 181.336060,246.390610 182.773102,245.950912 
	C185.170700,247.132462 184.806061,249.559296 184.928772,251.569595 
	C185.600342,262.570007 184.415253,273.449310 183.413422,284.409454 
	C182.629837,292.981995 179.408371,301.573883 181.985138,310.390350 
	C182.532837,312.264313 181.741455,313.994873 180.171509,315.718475 
	C179.950516,316.025848 179.985886,316.004181 180.002136,315.991699 
z"/>
<path fill="#000000" opacity="1.000000" stroke="none" 
	d="
M317.300171,241.052948 
	C323.235199,247.751816 324.540558,255.771667 324.918915,263.955872 
	C325.407959,274.532898 325.892853,285.067383 328.080231,295.491882 
	C328.754181,298.703644 329.246643,302.404175 326.721466,305.470947 
	C323.799683,304.912598 324.342102,302.552490 324.013245,300.760254 
	C320.693176,282.664185 318.320587,264.429962 316.160950,246.166885 
	C315.950867,244.390533 314.624237,242.339264 317.300171,241.052948 
z"/>
<path fill="#000000" opacity="1.000000" stroke="none" 
	d="
M441.586761,149.590973 
	C443.826691,153.140549 443.751587,155.366989 439.231781,154.876892 
	C438.774994,157.958511 441.425507,160.377792 439.549713,163.027313 
	C432.040192,160.465912 424.287384,142.259949 425.871216,129.161072 
	C431.458740,136.408890 436.422241,142.847260 441.586761,149.590973 
z"/>
<path fill="#000000" opacity="1.000000" stroke="none" 
	d="
M136.354553,79.444153 
	C128.484329,90.528305 110.464821,96.699577 101.870384,91.466377 
	C102.748917,89.197952 104.942963,89.070267 106.776436,88.738441 
	C115.863922,87.093796 124.339111,84.079811 131.947662,78.681778 
	C134.799088,76.658783 134.981308,76.915627 136.354553,79.444153 
z"/>
<path fill="#000000" opacity="1.000000" stroke="none" 
	d="
M59.860607,156.949219 
	C57.955711,158.565781 56.435028,160.196701 53.976585,159.860474 
	C53.893749,154.864716 61.493309,145.217041 66.954056,143.790314 
	C67.938492,149.952194 63.522625,153.073639 59.860607,156.949219 
z"/>
</svg>